<svg id="Capa_1" enable-background="new 0 0 497 497" height="512" viewBox="0 0 497 497" width="512" xmlns="http://www.w3.org/2000/svg"><g><path d="m0 91.165c0-18.04 14.694-32.665 32.82-32.665h431.36c18.126 0 32.82 14.625 32.82 32.665v314.67c0 18.04-14.694 32.665-32.82 32.665h-431.36c-18.126 0-32.82-14.625-32.82-32.665z" fill="#f9f8f8"/><path d="m52.82 438.5h-20c-18.13 0-32.82-14.62-32.82-32.66v-314.68c0-18.04 14.69-32.66 32.82-32.66h20c-18.13 0-32.82 14.62-32.82 32.66v314.68c0 18.04 14.69 32.66 32.82 32.66z" fill="#ede8e5"/><path d="m147.698 205.235v163.828c0 7.322-7.839 13.258-17.509 13.258s-17.509-5.936-17.509-13.258v-164.225z" fill="#e1dfe3"/><path d="m112.68 153.685v-28.125c0-7.274 7.839-13.171 17.509-13.171s17.509 5.897 17.509 13.171v28.125z" fill="#e1dfe3"/><path d="m137.69 381.04c-2.27.82-4.82 1.28-7.5 1.28-9.67 0-17.51-5.94-17.51-13.26v-164.22l15 .17v164.05c0 5.29 4.09 9.86 10.01 11.98z" fill="#d1ced4"/><path d="m137.527 113.569c-5.924 2.111-10.017 6.654-10.017 11.908v28.149h-15.01v-28.149c0-7.275 7.845-13.179 17.522-13.179 2.682 0 5.234.45 7.505 1.271z" fill="#d1ced4"/><path d="m267.655 339.657c.038 6.587.077 23.175.115 29.762 0 7.265-7.839 13.155-17.509 13.155s-17.509-5.89-17.509-13.155c.032-6.587.064-23.175.096-29.762z" fill="#e1dfe3"/><path d="m232.848 288.962c-.032-51.064-.064-112.128-.096-163.193 0-7.324 7.839-13.261 17.509-13.261s17.509 5.937 17.509 13.261c-.038 51.064-.077 112.128-.115 163.193z" fill="#e1dfe3"/><path d="m257.679 381.391c-2.272.821-4.813 1.271-7.505 1.271-9.677 0-17.522-5.894-17.522-13.159.03-6.594.07-23.196.1-29.78h15.01c-.03 6.585-.07 23.186-.1 29.78 0 5.244 4.093 9.777 10.017 11.888z" fill="#d1ced4"/><path d="m247.662 125.687c.03 51.095.07 112.207.1 163.302h-15.01c-.03-51.095-.07-112.207-.1-163.302 0-7.325 7.845-13.269 17.522-13.269 2.692 0 5.234.46 7.505 1.281-5.924 2.121-10.017 6.694-10.017 11.988z" fill="#d1ced4"/><path d="m385.824 258.416v111.308c0 7.277-7.839 13.177-17.509 13.177s-17.509-5.9-17.509-13.177c.07-34.103.141-77.206.211-111.308z" fill="#e1dfe3"/><path d="m351.017 206.41c-.07-23.493-.141-56.987-.211-80.48 0-7.358 7.839-13.324 17.509-13.324s17.509 5.965 17.509 13.324v80.48z" fill="#e1dfe3"/><path d="m375.81 381.722c-2.272.811-4.823 1.271-7.505 1.271-9.677 0-17.512-5.904-17.512-13.189.07-34.123.14-77.253.21-111.376h15.01c-.07 34.123-.14 77.253-.21 111.376 0 5.263 4.093 9.806 10.007 11.918z" fill="#d1ced4"/><path d="m365.803 125.847c.07 23.506.14 57.029.21 80.535h-15.01c-.07-23.506-.14-57.029-.21-80.535 0-7.365 7.835-13.329 17.512-13.329 2.682 0 5.234.46 7.505 1.281-5.914 2.141-10.007 6.724-10.007 12.048z" fill="#d1ced4"/><path d="m152.701 214.651h-45.024c-19.34 0-35.018-15.6-35.018-34.845s15.678-34.845 35.018-34.845h45.024c19.34 0 35.018 15.6 35.018 34.845s-15.678 34.845-35.018 34.845z" fill="#96d094"/><path d="m185.4 192.28c-5.03 13.08-17.78 22.37-32.7 22.37h-45.02c-19.34 0-35.02-15.6-35.02-34.84 0-14.79 9.26-27.43 22.32-32.48-1.5 3.87-2.32 8.08-2.32 12.48 0 19.24 15.68 34.84 35.02 34.84h45.02c4.48 0 8.76-.84 12.7-2.37z" fill="#8bc089"/><path d="m272.764 349.052h-45.024c-19.34 0-35.018-15.6-35.018-34.845s15.678-34.845 35.018-34.845h45.024c19.34 0 35.018 15.6 35.018 34.845s-15.678 34.845-35.018 34.845z" fill="#ed5"/><path d="m305.46 326.68c-5.03 13.08-17.78 22.37-32.7 22.37h-45.02c-19.34 0-35.02-15.6-35.02-34.84 0-14.79 9.26-27.43 22.32-32.48-1.5 3.87-2.32 8.08-2.32 12.48 0 19.24 15.68 34.84 35.02 34.84h45.02c4.48 0 8.76-.84 12.7-2.37z" fill="#ead246"/><path d="m390.826 266.42h-45.024c-19.34 0-35.018-15.6-35.018-34.845s15.678-34.845 35.018-34.845h45.024c19.34 0 35.018 15.6 35.018 34.845s-15.677 34.845-35.018 34.845z" fill="#ba333e"/><path d="m423.53 244.06c-5.05 13.08-17.78 22.36-32.7 22.36h-45.03c-19.34 0-35.02-15.6-35.02-34.84 0-14.79 9.26-27.43 22.32-32.48-1.5 3.87-2.32 8.08-2.32 12.48 0 19.24 15.68 34.84 35.02 34.84h45.03c4.48 0 8.76-.84 12.7-2.36z" fill="#a82933"/></g></svg>