<svg height="480pt" viewBox="0 0 480 480" width="480pt" xmlns="http://www.w3.org/2000/svg" xmlns:xlink="http://www.w3.org/1999/xlink"><linearGradient id="a"><stop offset="0" stop-color="#fff200"/><stop offset="1" stop-color="#cd118c"/></linearGradient><linearGradient id="b" gradientUnits="userSpaceOnUse" x1="12" x2="460" xlink:href="#a" y1="468" y2="20"/><linearGradient id="c" gradientUnits="userSpaceOnUse" x1="-9.168" x2="438.832" xlink:href="#a" y1="446.832" y2="-1.168"/><path d="m240 0c-132.546875 0-240 107.453125-240 240s107.453125 240 240 240 240-107.453125 240-240c-.148438-132.484375-107.515625-239.851562-240-240zm0 464c-123.710938 0-224-100.289062-224-224s100.289062-224 224-224 224 100.289062 224 224c-.140625 123.652344-100.347656 223.859375-224 224zm0 0" fill="url(#b)"/><path d="m240 24c-119.292969 0-216 96.707031-216 216s96.707031 216 216 216 216-96.707031 216-216c-.132812-119.238281-96.761719-215.867188-216-216zm0 416c-110.457031 0-200-89.542969-200-200s89.542969-200 200-200 200 89.542969 200 200c-.125 110.40625-89.59375 199.875-200 200zm0 0" fill="url(#b)"/><path d="m370.113281 186.34375-130.113281 130.113281-130.113281-130.113281-11.3125 11.3125 141.425781 141.421875 141.425781-141.421875zm0 0" fill="url(#c)"/></svg>